<?xml version="1.0" encoding="UTF-8" standalone="no"?>
<!-- Created with Inkscape (http://www.inkscape.org/) -->

<svg
   xmlns:dc="http://purl.org/dc/elements/1.1/"
   xmlns:cc="http://creativecommons.org/ns#"
   xmlns:rdf="http://www.w3.org/1999/02/22-rdf-syntax-ns#"
   xmlns:svg="http://www.w3.org/2000/svg"
   xmlns="http://www.w3.org/2000/svg"
   xmlns:sodipodi="http://sodipodi.sourceforge.net/DTD/sodipodi-0.dtd"
   xmlns:inkscape="http://www.inkscape.org/namespaces/inkscape"
   width="16"
   height="16"
   id="svg3249"
   version="1.1"
   inkscape:version="0.48.5 r10040"
   sodipodi:docname="invader-anim2.svg">
  <defs
     id="defs3251" />
  <sodipodi:namedview
     id="base"
     pagecolor="#ffffff"
     bordercolor="#666666"
     borderopacity="1.0"
     inkscape:pageopacity="0.0"
     inkscape:pageshadow="2"
     inkscape:zoom="44.395604"
     inkscape:cx="12.874795"
     inkscape:cy="8.6341076"
     inkscape:current-layer="layer1"
     showgrid="true"
     inkscape:grid-bbox="true"
     inkscape:document-units="px"
     inkscape:snap-global="true"
     showguides="true"
     inkscape:guide-bbox="true"
     inkscape:window-width="1920"
     inkscape:window-height="1058"
     inkscape:window-x="1272"
     inkscape:window-y="-8"
     inkscape:window-maximized="1">
    <inkscape:grid
       type="xygrid"
       id="grid3259"
       empspacing="5"
       visible="true"
       enabled="true"
       snapvisiblegridlinesonly="true"
       originx="1px"
       originy="1px" />
  </sodipodi:namedview>
  <metadata
     id="metadata3254">
    <rdf:RDF>
      <cc:Work
         rdf:about="">
        <dc:format>image/svg+xml</dc:format>
        <dc:type
           rdf:resource="http://purl.org/dc/dcmitype/StillImage" />
        <dc:title />
      </cc:Work>
    </rdf:RDF>
  </metadata>
  <g
     id="layer1"
     inkscape:label="Layer 1"
     inkscape:groupmode="layer">
    <path
       style="fill:#ffffff;stroke:none"
       d="M 5,4 5,4.5 5,5 5.5,5 6,5 6,4.5 6,4 5.5,4 5,4 z M 6,5 6,5.5 6,6 5.5,6 5,6 5,6.5 5,7 4.5,7 4,7 4,6.5 4,6 4,5.5 4,5 3.5,5 3,5 3,5.5 3,6 3,6.5 3,7 3,7.5 3,8 3,8.5 3,9 3.5,9 4,9 4,9.5 4,10 4.5,10 5,10 5,10.5 5,11 5.5,11 6,11 6,10.5 6,10 l 0.5,0 0.5,0 0.5,0 0.5,0 0.5,0 0.5,0 0.5,0 0.5,0 0.5,0 0.5,0 0,0.5 0,0.5 0.5,0 0.5,0 0,-0.5 0,-0.5 0.5,0 L 13,10 13,9.5 13,9 13.5,9 14,9 14,8.5 14,8 14,7.5 14,7 14,6.5 14,6 14,5.5 14,5 13.5,5 13,5 13,5.5 13,6 13,6.5 13,7 12.5,7 12,7 12,6.5 12,6 11.5,6 11,6 11,5.5 11,5 10.5,5 10,5 10,5.5 10,6 9.5,6 9,6 8.5,6 8,6 7.5,6 7,6 7,5.5 7,5 6.5,5 6,5 z M 11,5 11.5,5 12,5 12,4.5 12,4 11.5,4 11,4 11,4.5 11,5 z m 1,6 0,0.5 0,0.5 0.5,0 0.5,0 0,-0.5 0,-0.5 -0.5,0 -0.5,0 z M 5,11 4.5,11 4,11 4,11.5 4,12 4.5,12 5,12 5,11.5 5,11 z M 6,7 6.5,7 7,7 7,7.5 7,8 6.5,8 6,8 6,7.5 6,7 z M 10,7 10.5,7 11,7 11,7.5 11,8 10.5,8 10,8 10,7.5 10,7 z"
       id="path3322"
       inkscape:connector-curvature="0" />
  </g>
</svg>
