<?xml version="1.0" encoding="UTF-8" standalone="no"?>
<!-- Created with Inkscape (http://www.inkscape.org/) -->

<svg
   xmlns:dc="http://purl.org/dc/elements/1.1/"
   xmlns:cc="http://creativecommons.org/ns#"
   xmlns:rdf="http://www.w3.org/1999/02/22-rdf-syntax-ns#"
   xmlns:svg="http://www.w3.org/2000/svg"
   xmlns="http://www.w3.org/2000/svg"
   xmlns:sodipodi="http://sodipodi.sourceforge.net/DTD/sodipodi-0.dtd"
   xmlns:inkscape="http://www.inkscape.org/namespaces/inkscape"
   width="13"
   height="13"
   id="svg3622"
   version="1.1"
   inkscape:version="0.48.5 r10040"
   sodipodi:docname="New document 5">
  <defs
     id="defs3624" />
  <sodipodi:namedview
     id="base"
     pagecolor="#ffffff"
     bordercolor="#666666"
     borderopacity="1.0"
     inkscape:pageopacity="0.0"
     inkscape:pageshadow="2"
     inkscape:zoom="44.395604"
     inkscape:cx="-0.47193521"
     inkscape:cy="7.0501421"
     inkscape:current-layer="layer1"
     showgrid="true"
     inkscape:grid-bbox="true"
     inkscape:document-units="px"
     inkscape:window-width="1920"
     inkscape:window-height="1058"
     inkscape:window-x="1272"
     inkscape:window-y="-8"
     inkscape:window-maximized="1">
    <inkscape:grid
       type="xygrid"
       id="grid3707"
       empspacing="5"
       visible="true"
       enabled="true"
       snapvisiblegridlinesonly="true" />
  </sodipodi:namedview>
  <metadata
     id="metadata3627">
    <rdf:RDF>
      <cc:Work
         rdf:about="">
        <dc:format>image/svg+xml</dc:format>
        <dc:type
           rdf:resource="http://purl.org/dc/dcmitype/StillImage" />
        <dc:title></dc:title>
      </cc:Work>
    </rdf:RDF>
  </metadata>
  <g
     id="layer1"
     inkscape:label="Layer 1"
     inkscape:groupmode="layer"
     transform="translate(0,-3)">
    <path
       style="fill:#ffffff;stroke:none"
       d="M 4 2 L 4 2.5 L 4 3 L 3.5 3 L 3 3 L 3 3.5 L 3 4 L 2.5 4 L 2 4 L 2 4.5 L 2 5 L 1.5 5 L 1 5 L 1 5.5 L 1 6 L 1 6.5 L 1 7 L 1.5 7 L 2 7 L 2.5 7 L 3 7 L 3 7.5 L 3 8 L 3.5 8 L 4 8 L 4 7.5 L 4 7 L 4.5 7 L 5 7 L 5.5 7 L 6 7 L 6 7.5 L 6 8 L 6.5 8 L 7 8 L 7 7.5 L 7 7 L 7.5 7 L 8 7 L 8.5 7 L 9 7 L 9 6.5 L 9 6 L 9 5.5 L 9 5 L 8.5 5 L 8 5 L 8 4.5 L 8 4 L 7.5 4 L 7 4 L 7 3.5 L 7 3 L 6.5 3 L 6 3 L 6 2.5 L 6 2 L 5.5 2 L 5 2 L 4.5 2 L 4 2 z M 7 8 L 7 8.5 L 7 9 L 7.5 9 L 8 9 L 8 8.5 L 8 8 L 7.5 8 L 7 8 z M 8 9 L 8 9.5 L 8 10 L 8.5 10 L 9 10 L 9 9.5 L 9 9 L 8.5 9 L 8 9 z M 7 9 L 6.5 9 L 6 9 L 6 9.5 L 6 10 L 6.5 10 L 7 10 L 7 9.5 L 7 9 z M 6 9 L 6 8.5 L 6 8 L 5.5 8 L 5 8 L 4.5 8 L 4 8 L 4 8.5 L 4 9 L 4.5 9 L 5 9 L 5.5 9 L 6 9 z M 4 9 L 3.5 9 L 3 9 L 3 9.5 L 3 10 L 3.5 10 L 4 10 L 4 9.5 L 4 9 z M 3 9 L 3 8.5 L 3 8 L 2.5 8 L 2 8 L 2 8.5 L 2 9 L 2.5 9 L 3 9 z M 2 9 L 1.5 9 L 1 9 L 1 9.5 L 1 10 L 1.5 10 L 2 10 L 2 9.5 L 2 9 z M 3 5 L 3.5 5 L 4 5 L 4 5.5 L 4 6 L 3.5 6 L 3 6 L 3 5.5 L 3 5 z M 6 5 L 6.5 5 L 7 5 L 7 5.5 L 7 6 L 6.5 6 L 6 6 L 6 5.5 L 6 5 z "
       transform="translate(0,3)"
       id="path3322-3-2" />
  </g>
</svg>
