<?xml version="1.0" encoding="UTF-8" standalone="no"?>
<!-- Created with Inkscape (http://www.inkscape.org/) -->

<svg
   xmlns:dc="http://purl.org/dc/elements/1.1/"
   xmlns:cc="http://creativecommons.org/ns#"
   xmlns:rdf="http://www.w3.org/1999/02/22-rdf-syntax-ns#"
   xmlns:svg="http://www.w3.org/2000/svg"
   xmlns="http://www.w3.org/2000/svg"
   xmlns:sodipodi="http://sodipodi.sourceforge.net/DTD/sodipodi-0.dtd"
   xmlns:inkscape="http://www.inkscape.org/namespaces/inkscape"
   width="14"
   height="14"
   id="svg3988"
   version="1.1"
   inkscape:version="0.48.5 r10040"
   sodipodi:docname="invader-3-0-1.svg">
  <defs
     id="defs3990" />
  <sodipodi:namedview
     id="base"
     pagecolor="#ffffff"
     bordercolor="#666666"
     borderopacity="1.0"
     inkscape:pageopacity="0.0"
     inkscape:pageshadow="2"
     inkscape:zoom="62.784865"
     inkscape:cx="6.1134567"
     inkscape:cy="6.7726617"
     inkscape:current-layer="layer1"
     showgrid="true"
     inkscape:grid-bbox="true"
     inkscape:document-units="px"
     inkscape:window-width="1920"
     inkscape:window-height="1058"
     inkscape:window-x="1272"
     inkscape:window-y="-8"
     inkscape:window-maximized="1">
    <inkscape:grid
       type="xygrid"
       id="grid3996"
       empspacing="5"
       visible="true"
       enabled="true"
       snapvisiblegridlinesonly="true" />
  </sodipodi:namedview>
  <metadata
     id="metadata3993">
    <rdf:RDF>
      <cc:Work
         rdf:about="">
        <dc:format>image/svg+xml</dc:format>
        <dc:type
           rdf:resource="http://purl.org/dc/dcmitype/StillImage" />
        <dc:title></dc:title>
      </cc:Work>
    </rdf:RDF>
  </metadata>
  <g
     id="layer1"
     inkscape:label="Layer 1"
     inkscape:groupmode="layer"
     transform="translate(0,-2)">
    <path
       style="fill:#ffffff;stroke:none"
       d="M 5,5 5,5.5 5,6 4.5,6 4,6 4,6.5 4,7 4,7.5 4,8 4.5,8 5,8 5.5,8 6,8 6.5,8 7,8 7,8.5 7,9 7.5,9 8,9 8.5,9 9,9 9.5,9 10,9 10,8.5 10,8 10.5,8 11,8 11.5,8 12,8 12.5,8 13,8 13,7.5 13,7 13,6.5 13,6 12.5,6 12,6 12,5.5 12,5 11.5,5 11,5 10.5,5 10,5 9.5,5 9,5 8.5,5 8,5 7.5,5 7,5 6.5,5 6,5 5.5,5 5,5 z m 5,4 0,0.5 0,0.5 0.5,0 L 11,10 11,9.5 11,9 10.5,9 10,9 z m 1,1 0,0.5 0,0.5 0.5,0 0.5,0 0,-0.5 0,-0.5 -0.5,0 -0.5,0 z m 0,1 -0.5,0 -0.5,0 -0.5,0 -0.5,0 0,0.5 0,0.5 0.5,0 0.5,0 0.5,0 0.5,0 0,-0.5 0,-0.5 z M 7,9 6.5,9 6,9 6,9.5 6,10 6.5,10 7,10 7,9.5 7,9 z M 6,10 5.5,10 5,10 5,10.5 5,11 5.5,11 6,11 6,10.5 6,10 z M 6,11 6,11.5 6,12 6.5,12 7,12 7.5,12 8,12 8,11.5 8,11 7.5,11 7,11 6.5,11 6,11 z M 6,6 6.5,6 7,6 7.5,6 8,6 8,6.5 8,7 7.5,7 7,7 6.5,7 6,7 6,6.5 6,6 z M 9,6 9.5,6 10,6 10.5,6 11,6 11,6.5 11,7 10.5,7 10,7 9.5,7 9,7 9,6.5 9,6 z"
       id="path3322-3-2-6"
       inkscape:connector-curvature="0" />
  </g>
</svg>
