<?xml version="1.0" encoding="UTF-8" standalone="no"?>
<!-- Created with Inkscape (http://www.inkscape.org/) -->

<svg
   xmlns:dc="http://purl.org/dc/elements/1.1/"
   xmlns:cc="http://creativecommons.org/ns#"
   xmlns:rdf="http://www.w3.org/1999/02/22-rdf-syntax-ns#"
   xmlns:svg="http://www.w3.org/2000/svg"
   xmlns="http://www.w3.org/2000/svg"
   xmlns:sodipodi="http://sodipodi.sourceforge.net/DTD/sodipodi-0.dtd"
   xmlns:inkscape="http://www.inkscape.org/namespaces/inkscape"
   width="14"
   height="14"
   id="svg3873"
   version="1.1"
   inkscape:version="0.48.5 r10040"
   sodipodi:docname="New document 6">
  <defs
     id="defs3875" />
  <sodipodi:namedview
     id="base"
     pagecolor="#ffffff"
     bordercolor="#666666"
     borderopacity="1.0"
     inkscape:pageopacity="0.0"
     inkscape:pageshadow="2"
     inkscape:zoom="31.392433"
     inkscape:cx="5.8535266"
     inkscape:cy="6.8065658"
     inkscape:current-layer="layer1"
     showgrid="true"
     inkscape:grid-bbox="true"
     inkscape:document-units="px"
     inkscape:window-width="1920"
     inkscape:window-height="1058"
     inkscape:window-x="1272"
     inkscape:window-y="-8"
     inkscape:window-maximized="1">
    <inkscape:grid
       type="xygrid"
       id="grid3881"
       empspacing="5"
       visible="true"
       enabled="true"
       snapvisiblegridlinesonly="true" />
  </sodipodi:namedview>
  <metadata
     id="metadata3878">
    <rdf:RDF>
      <cc:Work
         rdf:about="">
        <dc:format>image/svg+xml</dc:format>
        <dc:type
           rdf:resource="http://purl.org/dc/dcmitype/StillImage" />
        <dc:title></dc:title>
      </cc:Work>
    </rdf:RDF>
  </metadata>
  <g
     id="layer1"
     inkscape:label="Layer 1"
     inkscape:groupmode="layer"
     transform="translate(0,-2)">
    <path
       style="fill:#ffffff;stroke:none"
       d="M 2 3 L 2 3.5 L 2 4 L 1.5 4 L 1 4 L 1 4.5 L 1 5 L 1 5.5 L 1 6 L 1.5 6 L 2 6 L 2.5 6 L 3 6 L 3.5 6 L 4 6 L 4 6.5 L 4 7 L 4.5 7 L 5 7 L 5.5 7 L 6 7 L 6.5 7 L 7 7 L 7 6.5 L 7 6 L 7.5 6 L 8 6 L 8.5 6 L 9 6 L 9.5 6 L 10 6 L 10 5.5 L 10 5 L 10 4.5 L 10 4 L 9.5 4 L 9 4 L 9 3.5 L 9 3 L 8.5 3 L 8 3 L 7.5 3 L 7 3 L 6.5 3 L 6 3 L 5.5 3 L 5 3 L 4.5 3 L 4 3 L 3.5 3 L 3 3 L 2.5 3 L 2 3 z M 7 7 L 7 7.5 L 7 8 L 7.5 8 L 8 8 L 8 7.5 L 8 7 L 7.5 7 L 7 7 z M 8 8 L 8 8.5 L 8 9 L 8.5 9 L 9 9 L 9 8.5 L 9 8 L 8.5 8 L 8 8 z M 9 9 L 9 9.5 L 9 10 L 9.5 10 L 10 10 L 10 9.5 L 10 9 L 9.5 9 L 9 9 z M 4 7 L 3.5 7 L 3 7 L 3 7.5 L 3 8 L 3.5 8 L 4 8 L 4 7.5 L 4 7 z M 3 8 L 2.5 8 L 2 8 L 2 8.5 L 2 9 L 2.5 9 L 3 9 L 3 8.5 L 3 8 z M 2 9 L 1.5 9 L 1 9 L 1 9.5 L 1 10 L 1.5 10 L 2 10 L 2 9.5 L 2 9 z M 3 4 L 3.5 4 L 4 4 L 4.5 4 L 5 4 L 5 4.5 L 5 5 L 4.5 5 L 4 5 L 3.5 5 L 3 5 L 3 4.5 L 3 4 z M 6 4 L 6.5 4 L 7 4 L 7.5 4 L 8 4 L 8 4.5 L 8 5 L 7.5 5 L 7 5 L 6.5 5 L 6 5 L 6 4.5 L 6 4 z "
       transform="translate(0,2)"
       id="path3322-3-2-6" />
  </g>
</svg>
