<?xml version="1.0" encoding="UTF-8" standalone="no"?>
<!-- Created with Inkscape (http://www.inkscape.org/) -->

<svg
   xmlns:dc="http://purl.org/dc/elements/1.1/"
   xmlns:cc="http://creativecommons.org/ns#"
   xmlns:rdf="http://www.w3.org/1999/02/22-rdf-syntax-ns#"
   xmlns:svg="http://www.w3.org/2000/svg"
   xmlns="http://www.w3.org/2000/svg"
   xmlns:sodipodi="http://sodipodi.sourceforge.net/DTD/sodipodi-0.dtd"
   xmlns:inkscape="http://www.inkscape.org/namespaces/inkscape"
   width="17"
   height="17"
   id="svg3249"
   version="1.1"
   inkscape:version="0.48.5 r10040"
   sodipodi:docname="invader-1-0-5.svg">
  <defs
     id="defs3251" />
  <sodipodi:namedview
     id="base"
     pagecolor="#ffffff"
     bordercolor="#666666"
     borderopacity="1.0"
     inkscape:pageopacity="0.0"
     inkscape:pageshadow="2"
     inkscape:zoom="44.395604"
     inkscape:cx="12.874795"
     inkscape:cy="8.6341076"
     inkscape:current-layer="layer1"
     showgrid="true"
     inkscape:grid-bbox="true"
     inkscape:document-units="px"
     inkscape:snap-global="true"
     showguides="true"
     inkscape:guide-bbox="true"
     inkscape:window-width="1920"
     inkscape:window-height="1058"
     inkscape:window-x="1272"
     inkscape:window-y="-8"
     inkscape:window-maximized="1">
    <inkscape:grid
       type="xygrid"
       id="grid3259"
       empspacing="5"
       visible="true"
       enabled="true"
       snapvisiblegridlinesonly="true"
       originx="1px"
       originy="1px" />
  </sodipodi:namedview>
  <metadata
     id="metadata3254">
    <rdf:RDF>
      <cc:Work
         rdf:about="">
        <dc:format>image/svg+xml</dc:format>
        <dc:type
           rdf:resource="http://purl.org/dc/dcmitype/StillImage" />
        <dc:title />
      </cc:Work>
    </rdf:RDF>
  </metadata>
  <g
     id="layer1"
     inkscape:label="Layer 1"
     inkscape:groupmode="layer"
     transform="translate(0,1)">
    <path
       style="fill:#ffffff;stroke:none"
       d="M 6 4 L 6 4.5 L 6 5 L 5.5 5 L 5 5 L 4.5 5 L 4 5 L 3.5 5 L 3 5 L 3 5.5 L 3 6 L 2.5 6 L 2 6 L 2 6.5 L 2 7 L 2 7.5 L 2 8 L 2 8.5 L 2 9 L 2.5 9 L 3 9 L 3.5 9 L 4 9 L 4 9.5 L 4 10 L 3.5 10 L 3 10 L 3 10.5 L 3 11 L 3.5 11 L 4 11 L 4 11.5 L 4 12 L 4.5 12 L 5 12 L 5.5 12 L 6 12 L 6 11.5 L 6 11 L 5.5 11 L 5 11 L 5 10.5 L 5 10 L 5.5 10 L 6 10 L 6.5 10 L 7 10 L 7 9.5 L 7 9 L 7.5 9 L 8 9 L 8.5 9 L 9 9 L 9 9.5 L 9 10 L 9.5 10 L 10 10 L 10.5 10 L 11 10 L 11 10.5 L 11 11 L 10.5 11 L 10 11 L 10 11.5 L 10 12 L 10.5 12 L 11 12 L 11.5 12 L 12 12 L 12 11.5 L 12 11 L 12.5 11 L 13 11 L 13 10.5 L 13 10 L 12.5 10 L 12 10 L 12 9.5 L 12 9 L 12.5 9 L 13 9 L 13.5 9 L 14 9 L 14 8.5 L 14 8 L 14 7.5 L 14 7 L 14 6.5 L 14 6 L 13.5 6 L 13 6 L 13 5.5 L 13 5 L 12.5 5 L 12 5 L 11.5 5 L 11 5 L 10.5 5 L 10 5 L 10 4.5 L 10 4 L 9.5 4 L 9 4 L 8.5 4 L 8 4 L 7.5 4 L 7 4 L 6.5 4 L 6 4 z M 9 10 L 8.5 10 L 8 10 L 7.5 10 L 7 10 L 7 10.5 L 7 11 L 7.5 11 L 8 11 L 8.5 11 L 9 11 L 9 10.5 L 9 10 z M 5 7 L 5.5 7 L 6 7 L 6.5 7 L 7 7 L 7 7.5 L 7 8 L 6.5 8 L 6 8 L 5.5 8 L 5 8 L 5 7.5 L 5 7 z M 9 7 L 9.5 7 L 10 7 L 10.5 7 L 11 7 L 11 7.5 L 11 8 L 10.5 8 L 10 8 L 9.5 8 L 9 8 L 9 7.5 L 9 7 z "
       transform="translate(0,-1)"
       id="path3322-79" />
  </g>
</svg>
